<?xml version="1.0" encoding="utf-8"?>
<!-- Generator: Adobe Illustrator 28.0.0, SVG Export Plug-In . SVG Version: 6.00 Build 0)  -->
<svg version="1.1" xmlns="http://www.w3.org/2000/svg" xmlns:xlink="http://www.w3.org/1999/xlink" x="0px" y="0px"
	 viewBox="0 0 50 50" style="enable-background:new 0 0 50 50;" xml:space="preserve">
<style type="text/css">
	.st0{fill:#FFFFFF;}
	.st1{fill:#E0E0E0;}
	.st2{fill:#151416;}
</style>
<g id="background">
	<rect class="st0" width="50" height="50"/>
</g>
<g id="Objects">
	<g>
		<ellipse id="Shadow" class="st1" cx="25" cy="46.6" rx="12" ry="0.9"/>
		<g>
			<path class="st2" d="M45.5,18.8c0,0-0.1-0.1-0.1-0.1c-0.5-2.2-1.4-4.3-2.6-6.3c-1.2-2-2.8-3.7-4.6-5.2c-1.8-1.5-3.9-2.6-6.1-3.4
				C29.8,3,27.4,2.6,25,2.6S20.2,3,17.9,3.8c-2.2,0.8-4.2,1.9-6.1,3.4c-1.8,1.5-3.3,3.2-4.6,5.2c-1.2,1.9-2.1,4.1-2.6,6.3
				c0,0-0.1,0.1-0.1,0.1c-1.2,1.2-1.9,2.8-1.9,4.5v0.2c0,1.7,0.7,3.3,1.9,4.5c0,0,0.1,0.1,0.1,0.1c0.5,2.2,1.4,4.3,2.6,6.3
				c1.2,2,2.8,3.7,4.6,5.2c1.8,1.5,3.9,2.6,6.1,3.4c2.3,0.8,4.7,1.2,7.1,1.2s4.8-0.4,7.1-1.2c2.2-0.8,4.2-1.9,6.1-3.4
				c1.8-1.5,3.3-3.2,4.6-5.2c1.2-1.9,2.1-4.1,2.6-6.3c0,0,0.1-0.1,0.1-0.1c1.2-1.2,1.9-2.8,1.9-4.5v-0.2
				C47.3,21.7,46.7,20,45.5,18.8z M43.6,17.5c-0.8-0.4-1.7-0.6-2.7-0.6h-6.2c-0.2-1.2-0.4-2.4-0.7-3.5c2.3-0.4,4.5-1,6.5-1.8
				c0.4,0.5,0.7,1,1,1.5C42.4,14.5,43.1,16,43.6,17.5z M25.7,4c0.7,0.1,1.4,0.4,2,0.9c0.9,0.6,1.7,1.6,2.5,2.8
				c0.8,1.2,1.5,2.7,2,4.4c0,0.1,0.1,0.2,0.1,0.3c-2.2,0.3-4.4,0.5-6.6,0.6V4z M22.3,4.9c0.7-0.5,1.3-0.8,2-0.9v8.9
				c-2.2,0-4.5-0.2-6.6-0.6c0-0.1,0.1-0.2,0.1-0.3c0.6-1.7,1.2-3.2,2-4.4C20.6,6.5,21.4,5.5,22.3,4.9z M17.3,13.7
				c2.3,0.4,4.6,0.6,7,0.6V17h-7.7C16.8,15.8,17,14.7,17.3,13.7z M25.7,14.3c2.4,0,4.7-0.2,7-0.6c0.3,1,0.5,2.1,0.7,3.3h-7.7V14.3z
				 M37.3,8.3c0.8,0.7,1.6,1.4,2.3,2.3c-1.9,0.7-3.9,1.2-6,1.6c0-0.2-0.1-0.3-0.2-0.5c-0.6-1.8-1.3-3.4-2.2-4.7
				c-0.6-1-1.3-1.9-2.1-2.6c0.8,0.2,1.6,0.4,2.4,0.7C33.7,5.9,35.6,6.9,37.3,8.3z M12.7,8.3c1.7-1.4,3.6-2.5,5.7-3.2
				c0.8-0.3,1.6-0.5,2.4-0.7C20,5.1,19.3,5.9,18.6,7c-0.8,1.3-1.6,2.9-2.2,4.7c-0.1,0.2-0.1,0.3-0.2,0.5c-2.1-0.4-4.1-0.9-6-1.6
				C11.1,9.8,11.8,9,12.7,8.3z M8.4,13.2c0.3-0.5,0.7-1,1-1.5c2.1,0.7,4.3,1.3,6.5,1.8c-0.3,1.1-0.5,2.3-0.7,3.5H9.1
				c-0.9,0-1.9,0.2-2.7,0.6C6.9,16,7.6,14.5,8.4,13.2z M6.4,29.4C7.2,29.8,8.1,30,9.1,30h6.2c0.2,1.2,0.4,2.4,0.7,3.5
				c-2.3,0.4-4.5,1-6.5,1.8c-0.4-0.5-0.7-1-1-1.5C7.6,32.4,6.9,31,6.4,29.4z M24.3,43c-0.7-0.1-1.4-0.4-2-0.9
				c-0.9-0.6-1.7-1.6-2.5-2.8c-0.8-1.2-1.5-2.7-2-4.4c0-0.1-0.1-0.2-0.1-0.3c2.2-0.3,4.4-0.5,6.6-0.6V43z M27.7,42.1
				c-0.7,0.5-1.3,0.8-2,0.9V34c2.2,0,4.5,0.2,6.6,0.6c0,0.1-0.1,0.2-0.1,0.3c-0.6,1.7-1.2,3.2-2,4.4C29.4,40.5,28.6,41.4,27.7,42.1z
				 M32.7,33.3c-2.3-0.4-4.6-0.6-7-0.6V30h7.7C33.2,31.1,33,32.2,32.7,33.3z M24.3,32.7c-2.4,0-4.7,0.2-7,0.6
				c-0.3-1-0.5-2.1-0.7-3.3h7.7V32.7z M12.7,38.7c-0.8-0.7-1.6-1.4-2.3-2.3c1.9-0.7,3.9-1.2,6-1.6c0,0.2,0.1,0.3,0.2,0.5
				c0.6,1.8,1.3,3.4,2.2,4.7c0.6,1,1.3,1.9,2.1,2.6c-0.8-0.2-1.6-0.4-2.4-0.7C16.3,41.1,14.4,40,12.7,38.7z M37.3,38.7
				c-1.7,1.4-3.6,2.5-5.7,3.2c-0.8,0.3-1.6,0.5-2.4,0.7c0.7-0.7,1.4-1.5,2.1-2.6c0.8-1.3,1.6-2.9,2.2-4.7c0.1-0.2,0.1-0.3,0.2-0.5
				c2.1,0.4,4.1,0.9,6,1.6C38.9,37.2,38.2,38,37.3,38.7z M41.6,33.8c-0.3,0.5-0.7,1-1,1.5c-2.1-0.7-4.3-1.3-6.5-1.8
				c0.3-1.1,0.5-2.3,0.7-3.5h6.2c0.9,0,1.9-0.2,2.7-0.6C43.1,31,42.4,32.4,41.6,33.8z M46,23.6c0,1.3-0.5,2.6-1.5,3.6
				c-1,1-2.2,1.5-3.6,1.5H9.1c-1.3,0-2.6-0.5-3.6-1.5S4,24.9,4,23.6v-0.2c0-1.3,0.5-2.6,1.5-3.6s2.2-1.5,3.6-1.5h31.9
				c1.3,0,2.6,0.5,3.6,1.5c1,1,1.5,2.2,1.5,3.6V23.6z"/>
			<polygon class="st2" points="15.6,24.8 15.5,24.8 14.4,20.4 12.9,20.4 11.8,24.8 11.7,24.8 10.8,20.4 8.9,20.4 10.8,27 12.5,27 
				13.6,23.1 13.7,23.1 14.8,27 16.5,27 18.3,20.4 16.5,20.4 			"/>
			<polygon class="st2" points="26.7,24.8 26.7,24.8 25.6,20.4 24.1,20.4 23,24.8 22.9,24.8 22,20.4 20.1,20.4 22,27 23.7,27 
				24.8,23.1 24.9,23.1 26,27 27.7,27 29.5,20.4 27.7,20.4 			"/>
			<polygon class="st2" points="37.9,24.8 37.9,24.8 36.8,20.4 35.3,20.4 34.1,24.8 34.1,24.8 33.2,20.4 31.3,20.4 33.2,27 34.9,27 
				36,23.1 36.1,23.1 37.2,27 38.9,27 40.7,20.4 38.9,20.4 			"/>
		</g>
	</g>
</g>
</svg>
